<svg xmlns="http://www.w3.org/2000/svg" viewBox="0 0 380 360">
  <path d="M190 349.1L253.3 154.2H126.7z" fill="#E24329"/>
  <path d="M190 349.1L126.7 154.2H15.8z" fill="#FC6D26"/>
  <path d="M15.8 154.2L1.5 198.3c-1.3 4-.1 8.4 3.2 11l185.3 134.8z" fill="#FCA326"/>
  <path d="M15.8 154.2H126.7L80.6 12.5c-1.4-4.4-7.7-4.4-9.1 0z" fill="#E24329"/>
  <path d="M190 349.1L253.3 154.2H364.2z" fill="#FC6D26"/>
  <path d="M364.2 154.2L378.5 198.3c1.3 4 .1 8.4-3.2 11L190 349.1z" fill="#FCA326"/>
  <path d="M364.2 154.2H253.3L299.4 12.5c1.4-4.4 7.7-4.4 9.1 0z" fill="#E24329"/>
</svg>
